<mxfile host="app.diagrams.net" agent="Mozilla/5.0 (Windows NT 10.0; Win64; x64) AppleWebKit/537.36 (KHTML, like Gecko) Chrome/140.0.0.0 Safari/537.36" version="28.2.3">
  <diagram name="Page-1" id="f8ZFXzvVDBu-RpxD9_9p">
    <mxGraphModel dx="868" dy="468" grid="1" gridSize="10" guides="1" tooltips="1" connect="1" arrows="1" fold="1" page="1" pageScale="1" pageWidth="850" pageHeight="1100" math="0" shadow="0">
      <root>
        <mxCell id="0" />
        <mxCell id="1" parent="0" />
        <mxCell id="w9Ttg9m2lTTY-2zkFXEg-1" value="Ubuntu 24.04 LTS&amp;nbsp;&lt;div&gt;http://64.227.118.113/zabbix&amp;nbsp;&lt;/div&gt;&lt;div&gt;64.227.118.113&amp;nbsp;&lt;/div&gt;&lt;div&gt;Incoming Ports(22.80.443):94.69.0.0/16&lt;div id=&quot;SDCloudData&quot;&gt;&lt;div data-data=&quot;eyJ0ZXh0IjoiVWJ1bnR1IDI0LjA0IExUU1xuaHR0cDovLzY0LjIyNy4xMTguMTEzL3phYmJpeFxuNjQuMjI3LjExOC4xMTNcbkluY29taW5nIFBvcnRzKDIyLjgwLjQ0Myk6OTQuNjkuMC4wLzE2IiwiY2hhclN0eWxlcyI6WzAsMCwwLDAsMCwwLDAsMCwwLDAsMCwwLDAsMCwwLDAsMCwwLDAsMCwwLDAsMCwwLDAsMCwwLDAsMCwwLDAsMCwwLDAsMCwwLDAsMCwwLDAsMCwwLDAsMCwwLDAsMCwwLDAsMCwwLDAsMCwwLDAsMCwwLDAsMCwwLDAsMCwwLDAsMCwwLDAsMCwwLDAsMCwwLDAsMCwwLDAsMCwwLDAsMCwwLDAsMCwwLDAsMCwwLDAsMCwwLDAsMCwwLDAsMCwwLDAsMCwwXSwic3R5bGVzIjpbeyJmb250IjoiQXJpYWwiLCJ0eXBlIjoic2Fuc2VyaWYiLCJzaXplIjoxMy44ODg4ODg4ODg4ODg4OSwid2VpZ2h0Ijoibm9ybWFsIiwic3R5bGUiOiJub3JtYWwiLCJiYXNlT2Zmc2V0Ijoibm9uZSIsImRlY29yYXRpb24iOiJub25lIiwic3BFcnJvciI6ZmFsc2UsImNvbG9yIjoiIzMzMzMzMyIsImNvbG9yVHJhbnMiOjEsImRhdGFGaWVsZCI6bnVsbCwiaHlwZXJsaW5rIjotMSwibWFwcGVkRm9udCI6IidBcmlhbCcsJ0hlbHZldGljYSBOZXVlJywgSGVsdmV0aWNhLCBzYW5zLXNlcmlmIn1dLCJoeXBlcmxpbmtzIjpbXSwicGFyYUluZm8iOlt7InBTdHlsZSI6eyJqdXN0IjoiY2VudGVyIiwiYnVsbGV0Ijoibm9uZSIsInNwYWNpbmciOjAsInBpbmRlbnQiOjAsImxpbmRlbnQiOjAsInJpbmRlbnQiOjAsInRhYnNwYWNlIjowLCJiaW5kZW50IjowfSwib2Zmc2V0IjowfSx7InBTdHlsZSI6eyJqdXN0IjoiY2VudGVyIiwiYnVsbGV0Ijoibm9uZSIsInNwYWNpbmciOjAsInBpbmRlbnQiOjAsImxpbmRlbnQiOjAsInJpbmRlbnQiOjAsInRhYnNwYWNlIjowLCJiaW5kZW50IjowfSwib2Zmc2V0IjoxN30seyJwU3R5bGUiOnsianVzdCI6ImNlbnRlciIsImJ1bGxldCI6Im5vbmUiLCJzcGFjaW5nIjowLCJwaW5kZW50IjowLCJsaW5kZW50IjowLCJyaW5kZW50IjowLCJ0YWJzcGFjZSI6MCwiYmluZGVudCI6MH0sIm9mZnNldCI6NDZ9LHsicFN0eWxlIjp7Imp1c3QiOiJjZW50ZXIiLCJidWxsZXQiOiJub25lIiwic3BhY2luZyI6MCwicGluZGVudCI6MCwibGluZGVudCI6MCwicmluZGVudCI6MCwidGFic3BhY2UiOjAsImJpbmRlbnQiOjB9LCJvZmZzZXQiOjYxfV0sInZBbGlnbiI6Im1pZGRsZSIsImludGVybmFsSUQiOiIwODM4OWE0Zi02NDNhLTQyNGQtODZhZC0zY2NmZjg5NDkyMzgiLCJjb250ZW50VmVyc2lvbiI6MTAwfQ==&quot; data-header=&quot;eyJjbGlwYm9hcmRUeXBlIjoxLCJzZGNsb3VkSW5zdGFuY2UiOjAuMzM3ODkyMjg1NTYwNDA4NzMsInRpbWVzdGFtcCI6MTc1ODUzMTg3NDU0Nn0=&quot; id=&quot;sdclouddataheader&quot;&gt;&lt;/div&gt;.&lt;/div&gt;&lt;/div&gt;" style="rounded=0;whiteSpace=wrap;html=1;labelBackgroundColor=none;align=center;verticalAlign=top;fontSize=12;" vertex="1" parent="1">
          <mxGeometry x="220" y="20" width="400" height="240" as="geometry" />
        </mxCell>
        <mxCell id="w9Ttg9m2lTTY-2zkFXEg-15" value="" style="edgeStyle=orthogonalEdgeStyle;rounded=0;orthogonalLoop=1;jettySize=auto;html=1;" edge="1" parent="1" source="w9Ttg9m2lTTY-2zkFXEg-4" target="w9Ttg9m2lTTY-2zkFXEg-7">
          <mxGeometry relative="1" as="geometry" />
        </mxCell>
        <mxCell id="w9Ttg9m2lTTY-2zkFXEg-4" value="Apache2&lt;div&gt;&lt;/div&gt;&lt;div&gt;Frontend PHP Scripts&lt;/div&gt;&lt;div&gt;80,443&lt;/div&gt;" style="rounded=0;whiteSpace=wrap;html=1;align=center;fontSize=8;" vertex="1" parent="1">
          <mxGeometry x="230" y="120" width="100" height="40" as="geometry" />
        </mxCell>
        <mxCell id="w9Ttg9m2lTTY-2zkFXEg-11" value="" style="edgeStyle=orthogonalEdgeStyle;rounded=0;orthogonalLoop=1;jettySize=auto;html=1;fontSize=5;" edge="1" parent="1" source="w9Ttg9m2lTTY-2zkFXEg-5" target="w9Ttg9m2lTTY-2zkFXEg-6">
          <mxGeometry relative="1" as="geometry" />
        </mxCell>
        <mxCell id="w9Ttg9m2lTTY-2zkFXEg-13" value="&lt;span style=&quot;font-size: 7px;&quot;&gt;127.0.0.1&lt;/span&gt;" style="edgeLabel;html=1;align=center;verticalAlign=middle;resizable=0;points=[];" vertex="1" connectable="0" parent="w9Ttg9m2lTTY-2zkFXEg-11">
          <mxGeometry x="-0.1305" y="1" relative="1" as="geometry">
            <mxPoint as="offset" />
          </mxGeometry>
        </mxCell>
        <mxCell id="w9Ttg9m2lTTY-2zkFXEg-16" value="" style="edgeStyle=orthogonalEdgeStyle;rounded=0;orthogonalLoop=1;jettySize=auto;html=1;" edge="1" parent="1" source="w9Ttg9m2lTTY-2zkFXEg-5" target="w9Ttg9m2lTTY-2zkFXEg-7">
          <mxGeometry relative="1" as="geometry" />
        </mxCell>
        <mxCell id="w9Ttg9m2lTTY-2zkFXEg-20" value="" style="edgeStyle=orthogonalEdgeStyle;rounded=0;orthogonalLoop=1;jettySize=auto;html=1;" edge="1" parent="1" source="w9Ttg9m2lTTY-2zkFXEg-5" target="w9Ttg9m2lTTY-2zkFXEg-6">
          <mxGeometry relative="1" as="geometry" />
        </mxCell>
        <mxCell id="w9Ttg9m2lTTY-2zkFXEg-5" value="Zabbix Server&amp;nbsp;&lt;div&gt;10051&lt;/div&gt;" style="rounded=0;whiteSpace=wrap;html=1;fontSize=8;" vertex="1" parent="1">
          <mxGeometry x="360" y="120" width="90" height="40" as="geometry" />
        </mxCell>
        <mxCell id="w9Ttg9m2lTTY-2zkFXEg-6" value="Zabbix Agent&amp;nbsp;&lt;div&gt;10050&lt;/div&gt;" style="rounded=0;whiteSpace=wrap;html=1;fontSize=8;" vertex="1" parent="1">
          <mxGeometry x="510" y="120" width="90" height="40" as="geometry" />
        </mxCell>
        <mxCell id="w9Ttg9m2lTTY-2zkFXEg-7" value="MySQL 3306" style="rounded=0;whiteSpace=wrap;html=1;fontSize=8;" vertex="1" parent="1">
          <mxGeometry x="300" y="190" width="90" height="40" as="geometry" />
        </mxCell>
        <mxCell id="w9Ttg9m2lTTY-2zkFXEg-17" value="&lt;div style=&quot;&quot;&gt;&lt;br&gt;&lt;/div&gt;" style="rounded=0;whiteSpace=wrap;html=1;align=center;" vertex="1" parent="1">
          <mxGeometry x="662" y="120" width="120" height="140" as="geometry" />
        </mxCell>
        <mxCell id="w9Ttg9m2lTTY-2zkFXEg-22" style="edgeStyle=orthogonalEdgeStyle;rounded=0;orthogonalLoop=1;jettySize=auto;html=1;fontSize=8;" edge="1" parent="1" source="w9Ttg9m2lTTY-2zkFXEg-18">
          <mxGeometry relative="1" as="geometry">
            <mxPoint x="460" y="140" as="targetPoint" />
          </mxGeometry>
        </mxCell>
        <mxCell id="w9Ttg9m2lTTY-2zkFXEg-25" value="10.114.0.3" style="edgeLabel;html=1;align=center;verticalAlign=middle;resizable=0;points=[];" vertex="1" connectable="0" parent="w9Ttg9m2lTTY-2zkFXEg-22">
          <mxGeometry x="0.0395" y="2" relative="1" as="geometry">
            <mxPoint as="offset" />
          </mxGeometry>
        </mxCell>
        <mxCell id="w9Ttg9m2lTTY-2zkFXEg-18" value="Zabbix Agent&lt;div&gt;10050&lt;/div&gt;" style="rounded=0;whiteSpace=wrap;html=1;fontSize=8;" vertex="1" parent="1">
          <mxGeometry x="688" y="210" width="68" height="30" as="geometry" />
        </mxCell>
        <mxCell id="w9Ttg9m2lTTY-2zkFXEg-23" value="Host-A&lt;div&gt;Ubuntu 24.04&lt;/div&gt;&lt;div&gt;10.114.0.2&lt;/div&gt;&lt;div style=&quot;line-height: 150%;&quot;&gt;Incoming Ports&lt;/div&gt;&lt;div style=&quot;line-height: 60%;&quot;&gt;22:94.69.0.0/16&lt;/div&gt;&lt;div style=&quot;line-height: 160%;&quot;&gt;10050&amp;nbsp;&lt;span style=&quot;background-color: transparent; color: light-dark(rgb(0, 0, 0), rgb(255, 255, 255));&quot;&gt;10.114.0.3&lt;/span&gt;&lt;/div&gt;" style="rounded=0;whiteSpace=wrap;html=1;fontSize=8;" vertex="1" parent="1">
          <mxGeometry x="682" y="130" width="80" height="60" as="geometry" />
        </mxCell>
        <mxCell id="w9Ttg9m2lTTY-2zkFXEg-29" style="edgeStyle=orthogonalEdgeStyle;rounded=0;orthogonalLoop=1;jettySize=auto;html=1;" edge="1" parent="1" source="w9Ttg9m2lTTY-2zkFXEg-26">
          <mxGeometry relative="1" as="geometry">
            <mxPoint x="460" y="140" as="targetPoint" />
          </mxGeometry>
        </mxCell>
        <mxCell id="w9Ttg9m2lTTY-2zkFXEg-26" value="&lt;div style=&quot;&quot;&gt;&lt;br&gt;&lt;/div&gt;" style="rounded=0;whiteSpace=wrap;html=1;align=center;" vertex="1" parent="1">
          <mxGeometry x="500" y="300" width="120" height="140" as="geometry" />
        </mxCell>
        <mxCell id="w9Ttg9m2lTTY-2zkFXEg-27" value="Host-B0&lt;div&gt;Ubuntu 24.04&lt;/div&gt;&lt;div&gt;10.114.0.4&lt;/div&gt;&lt;div style=&quot;line-height: 150%;&quot;&gt;Incoming Ports&lt;/div&gt;&lt;div style=&quot;line-height: 60%;&quot;&gt;22:94.69.0.0/16&lt;/div&gt;&lt;div style=&quot;line-height: 160%;&quot;&gt;10050&amp;nbsp;&lt;span style=&quot;background-color: transparent; color: light-dark(rgb(0, 0, 0), rgb(255, 255, 255));&quot;&gt;10.114.0.3&lt;/span&gt;&lt;/div&gt;" style="rounded=0;whiteSpace=wrap;html=1;fontSize=8;" vertex="1" parent="1">
          <mxGeometry x="520" y="310" width="80" height="60" as="geometry" />
        </mxCell>
        <mxCell id="w9Ttg9m2lTTY-2zkFXEg-28" value="Zabbix Agent&lt;div&gt;10050&lt;/div&gt;" style="rounded=0;whiteSpace=wrap;html=1;fontSize=8;" vertex="1" parent="1">
          <mxGeometry x="526" y="390" width="68" height="30" as="geometry" />
        </mxCell>
      </root>
    </mxGraphModel>
  </diagram>
</mxfile>
